<svg aria-hidden="true" style="position: absolute; width: 0; height: 0; overflow: hidden;" version="1.1" xmlns="http://www.w3.org/2000/svg" xmlns:xlink="http://www.w3.org/1999/xlink">
<defs>
<symbol id="arrow-up"  width="11" height="21" >
<path d="M0.499156 3.99729C-0.162662 3.31515 -0.162662 2.2096 0.477095 1.50394C0.808004 1.15111 1.22716 0.98645 1.66837 0.98645C2.08752 0.98645 2.50667 1.15111 2.81552 1.50394L10.5147 9.66613C10.8235 9.99544 11 10.4424 11 10.9128C11 11.3832 10.8235 11.8302 10.5147 12.1595L2.81552 20.3217C2.17576 21.0273 1.13891 21.0273 0.477095 20.3217C-0.162662 19.6395 -0.162662 18.5105 0.499156 17.8283L7.00703 10.9128L0.499156 3.99729Z" fill="#232323"/>
</symbol>

<symbol id="arrow-down" width="20" height="11">
<path d="M16.8537 0.499156C17.5358 -0.162662 18.6413 -0.162662 19.347 0.477095C19.6998 0.808004 19.8645 1.22716 19.8645 1.66837C19.8645 2.08752 19.6998 2.50667 19.347 2.81552L11.1848 10.5147C10.8555 10.8235 10.4086 11 9.93815 11C9.4677 11 9.02078 10.8235 8.69147 10.5147L0.529276 2.81552C-0.17639 2.17576 -0.17639 1.13891 0.529276 0.477095C1.21142 -0.162662 2.34048 -0.162662 3.02263 0.499156L9.93815 7.00703L16.8537 0.499156Z" fill="#0071FB"/>
</symbol>

<symbol id="copy" width="18" height="22" viewBox="0 0 18 22" fill="none" >
<path d="M13 17V19C13 19.5304 12.7893 20.0391 12.4142 20.4142C12.0391 20.7893 11.5304 21 11 21H3C2.46957 21 1.96086 20.7893 1.58579 20.4142C1.21071 20.0391 1 19.5304 1 19V8C1 7.46957 1.21071 6.96086 1.58579 6.58579C1.96086 6.21071 2.46957 6 3 6H5L13 17ZM11.685 1H7C6.46957 1 5.96086 1.21071 5.58579 1.58579C5.21071 1.96086 5 2.46957 5 3V15C5 15.5304 5.21071 16.0391 5.58579 16.4142C5.96086 16.7893 6.46957 17 7 17H15C15.5304 17 16.0391 16.7893 16.4142 16.4142C16.7893 16.0391 17 15.5304 17 15V6.242C17 5.97556 16.9467 5.71181 16.8433 5.46624C16.7399 5.22068 16.5885 4.99824 16.398 4.812L13.083 1.57C12.7094 1.20466 12.2076 1.00007 11.685 1V1Z" stroke="#707070" stroke-width="2" stroke-linecap="round" stroke-linejoin="round"/>
</symbol>

</defs>
</svg>
