<svg width="28" height="28" viewBox="0 0 28 28" fill="none" xmlns="http://www.w3.org/2000/svg">
<path fill-rule="evenodd" clip-rule="evenodd" d="M0.666687 12.2266C0.666687 5.8422 5.78714 0.666656 12.1035 0.666656C15.1368 0.666656 18.0458 1.88457 20.1906 4.05247C22.3354 6.22038 23.5404 9.16068 23.5404 12.2266C23.5404 18.6109 18.4199 23.7865 12.1035 23.7865C5.78714 23.7865 0.666687 18.6109 0.666687 12.2266ZM23.3512 21.539L26.7574 24.2885H26.8165C27.5056 24.9851 27.5056 26.1144 26.8165 26.8109C26.1274 27.5075 25.0101 27.5075 24.321 26.8109L21.4943 23.5713C21.2271 23.3021 21.0769 22.9365 21.0769 22.5552C21.0769 22.1738 21.2271 21.8082 21.4943 21.539C22.0097 21.0272 22.8358 21.0272 23.3512 21.539Z" fill="#F7F6F6"/>
</svg>
