<svg aria-hidden="true" style="position: absolute; width: 0; height: 0; overflow: hidden;" version="1.1" xmlns="http://www.w3.org/2000/svg" xmlns:xlink="http://www.w3.org/1999/xlink">
<defs>
<symbol id="icon-search" viewBox="0 0 28 28">
<path fill-rule="evenodd" clip-rule="evenodd" d="M0.666687 12.2266C0.666687 5.8422 5.78714 0.666656 12.1035 0.666656C15.1368 0.666656 18.0458 1.88457 20.1906 4.05247C22.3354 6.22038 23.5404 9.16068 23.5404 12.2266C23.5404 18.6109 18.4199 23.7865 12.1035 23.7865C5.78714 23.7865 0.666687 18.6109 0.666687 12.2266ZM23.3512 21.539L26.7574 24.2885H26.8165C27.5056 24.9851 27.5056 26.1144 26.8165 26.8109C26.1274 27.5075 25.0101 27.5075 24.321 26.8109L21.4943 23.5713C21.2271 23.3021 21.0769 22.9365 21.0769 22.5552C21.0769 22.1738 21.2271 21.8082 21.4943 21.539C22.0097 21.0272 22.8358 21.0272 23.3512 21.539Z" fill="#F7F6F6"/>
</symbol>
<symbol id="icon-notification" viewBox="0 0 24 28">
<path fill-rule="evenodd" clip-rule="evenodd" d="M20.9428 9.72843C20.9428 11.403 21.3854 12.39 22.3594 13.5274C23.0975 14.3654 23.3334 15.4411 23.3334 16.608C23.3334 17.7736 22.9504 18.8802 22.1831 19.7786C21.1787 20.8556 19.7621 21.5431 18.3163 21.6626C16.2213 21.8412 14.1249 21.9916 12.0007 21.9916C9.87514 21.9916 7.78008 21.9017 5.68502 21.6626C4.23796 21.5431 2.82138 20.8556 1.81824 19.7786C1.05098 18.8802 0.666687 17.7736 0.666687 16.608C0.666687 15.4411 0.903889 14.3654 1.64067 13.5274C2.64513 12.39 3.05858 11.403 3.05858 9.72843V9.16039C3.05858 6.91778 3.61779 5.45135 4.76935 4.01581C6.48144 1.92225 9.22582 0.666656 11.9411 0.666656H12.0603C14.8339 0.666656 17.667 1.98268 19.35 4.16621C20.4419 5.57221 20.9428 6.97686 20.9428 9.16039V9.72843ZM8.09825 24.7478C8.09825 24.0763 8.71445 23.7688 9.28426 23.6372C9.95081 23.4962 14.0124 23.4962 14.6789 23.6372C15.2488 23.7688 15.8649 24.0763 15.8649 24.7478C15.8318 25.387 15.4568 25.9537 14.9387 26.3136C14.2668 26.8373 13.4784 27.169 12.6541 27.2885C12.1983 27.3476 11.7504 27.3489 11.3104 27.2885C10.4848 27.169 9.69638 26.8373 9.02586 26.3122C8.5064 25.9537 8.13138 25.387 8.09825 24.7478Z" fill="#F7F6F6"/>
</symbol>
<symbol id="icon-profile" viewBox="0 0 22 28">
<path fill-rule="evenodd" clip-rule="evenodd" d="M18.0586 7.72139C18.0586 11.6374 14.9188 14.7775 11 14.7775C7.0825 14.7775 3.94133 11.6374 3.94133 7.72139C3.94133 3.80535 7.0825 0.666656 11 0.666656C14.9188 0.666656 18.0586 3.80535 18.0586 7.72139ZM11 27.3333C5.21648 27.3333 0.333313 26.3933 0.333313 22.7666C0.333313 19.1386 5.24716 18.2319 11 18.2319C16.7848 18.2319 21.6666 19.1719 21.6666 22.7986C21.6666 26.4266 16.7528 27.3333 11 27.3333Z" fill="#F7F6F6"/>
</symbol>
</defs>
</svg>
