<svg aria-hidden="true" style="position: absolute; width: 0; height: 0; overflow: hidden;" version="1.1" xmlns="http://www.w3.org/2000/svg" xmlns:xlink="http://www.w3.org/1999/xlink">
<defs>
<symbol id="icon-category" viewBox="0 0 28 28">
<path fill-rule="evenodd" clip-rule="evenodd" d="M4.05317 0.666656H8.55984C10.4398 0.666656 11.9465 2.19999 11.9465 4.08132V8.62666C11.9465 10.52 10.4398 12.04 8.55984 12.04H4.05317C2.1865 12.04 0.666504 10.52 0.666504 8.62666V4.08132C0.666504 2.19999 2.1865 0.666656 4.05317 0.666656ZM4.05317 15.9596H8.55984C10.4398 15.9596 11.9465 17.4809 11.9465 19.3743V23.9196C11.9465 25.7996 10.4398 27.3329 8.55984 27.3329H4.05317C2.1865 27.3329 0.666504 25.7996 0.666504 23.9196V19.3743C0.666504 17.4809 2.1865 15.9596 4.05317 15.9596ZM23.9466 0.666656H19.44C17.56 0.666656 16.0533 2.19999 16.0533 4.08132V8.62666C16.0533 10.52 17.56 12.04 19.44 12.04H23.9466C25.8133 12.04 27.3333 10.52 27.3333 8.62666V4.08132C27.3333 2.19999 25.8133 0.666656 23.9466 0.666656ZM19.44 15.9596H23.9466C25.8133 15.9596 27.3333 17.4809 27.3333 19.3743V23.9196C27.3333 25.7996 25.8133 27.3329 23.9466 27.3329H19.44C17.56 27.3329 16.0533 25.7996 16.0533 23.9196V19.3743C16.0533 17.4809 17.56 15.9596 19.44 15.9596Z" fill="#F7F6F6"/>
</symbol>
<symbol id="icon-home" viewBox="0 0 28 28">
<path d="M9.17987 25.0311V20.9542C9.17987 19.9134 10.0297 19.0697 11.0781 19.0697H14.9103C15.4137 19.0697 15.8966 19.2683 16.2525 19.6217C16.6085 19.9751 16.8085 20.4544 16.8085 20.9542V25.0311C16.8053 25.4638 16.9762 25.8798 17.2833 26.1869C17.5904 26.494 18.0082 26.6667 18.4441 26.6667H21.0586C22.2797 26.6698 23.4518 26.1905 24.3164 25.3344C25.1809 24.4784 25.6668 23.316 25.6668 22.1038V10.4891C25.6668 9.50995 25.2296 8.58112 24.473 7.95289L15.5789 0.901159C14.0317 -0.335251 11.815 -0.295331 10.314 0.995972L1.62285 7.95289C0.830484 8.5626 0.356899 9.49418 0.333496 10.4891V22.0919C0.333496 24.6185 2.39667 26.6667 4.94173 26.6667H7.49655C8.4018 26.6667 9.13749 25.9416 9.14405 25.043L9.17987 25.0311Z" fill="white"/>
</symbol>
<symbol id="icon-message" viewBox="0 0 28 25">
<path fill-rule="evenodd" clip-rule="evenodd" d="M20.5857 0.333496C22.3737 0.333496 24.0937 1.04016 25.359 2.30816C26.6257 3.5735 27.3337 5.28016 27.3337 7.06683V17.6002C27.3337 21.3202 24.307 24.3335 20.5857 24.3335H7.41366C3.69233 24.3335 0.666992 21.3202 0.666992 17.6002V7.06683C0.666992 3.34683 3.67899 0.333496 7.41366 0.333496H20.5857ZM22.707 9.05349L22.8137 8.94683C23.1323 8.56016 23.1323 8.00016 22.799 7.61349C22.6137 7.41483 22.359 7.29349 22.0937 7.26683C21.8137 7.25216 21.547 7.34683 21.3457 7.53349L15.3337 12.3335C14.5603 12.9748 13.4523 12.9748 12.667 12.3335L6.66699 7.53349C6.25232 7.22683 5.67899 7.26683 5.33366 7.62683C4.97366 7.98683 4.93366 8.56016 5.23899 8.96016L5.41366 9.13349L11.4803 13.8668C12.227 14.4535 13.1323 14.7735 14.0803 14.7735C15.0257 14.7735 15.947 14.4535 16.6923 13.8668L22.707 9.05349Z" fill="white"/>
</symbol>
<symbol id="icon-chat" viewBox="0 0 26 26">
<path fill-rule="evenodd" clip-rule="evenodd" d="M6.929 0H19.0697C23.491 0 25.987 2.5077 26 6.929V19.071C26 23.491 23.491 26 19.0697 26H6.929C2.5077 26 0 23.491 0 19.071V6.929C0 2.5077 2.5077 0 6.929 0ZM13.0637 20.618C13.624 20.618 14.0907 20.202 14.1427 19.643V6.396C14.1947 5.993 14.001 5.5887 13.65 5.369C13.2847 5.148 12.8427 5.148 12.493 5.369C12.1407 5.5887 11.947 5.993 11.9847 6.396V19.643C12.051 20.202 12.5177 20.618 13.0637 20.618ZM19.045 20.618C19.591 20.618 20.0577 20.202 20.124 19.643V15.379C20.1617 14.9617 19.968 14.573 19.6157 14.352C19.266 14.131 18.824 14.131 18.46 14.352C18.1077 14.573 17.914 14.9617 17.966 15.379V19.643C18.018 20.202 18.4847 20.618 19.045 20.618ZM8.08467 19.643C8.03267 20.202 7.56597 20.618 7.00567 20.618C6.44667 20.618 5.97867 20.202 5.92797 19.643V10.66C5.88897 10.2557 6.08267 9.854 6.43497 9.633C6.78467 9.412 7.22797 9.412 7.57897 9.633C7.92867 9.854 8.12497 10.2557 8.08467 10.66V19.643Z" fill="white"/>
</symbol>
<symbol id="icon-friends" viewBox="0 0 25 20">
<path fill-rule="evenodd" clip-rule="evenodd" d="M17.2254 5.29107C17.2254 8.22817 15.0968 10.5833 12.4421 10.5833C9.78742 10.5833 7.6588 8.22817 7.6588 5.29107C7.6588 2.35284 9.78742 0 12.4421 0C15.0968 0 17.2254 2.35284 17.2254 5.29107ZM12.4421 20C8.54302 20 5.21375 19.32 5.21375 16.6002C5.21375 13.8792 8.52165 13.1745 12.4421 13.1745C16.3412 13.1745 19.6704 13.8545 19.6704 16.5754C19.6704 19.2953 16.3625 20 12.4421 20ZM19.2694 5.38653C19.2694 6.88379 18.8634 8.2786 18.1512 9.43814C18.0779 9.55747 18.143 9.71845 18.2723 9.74322C18.4503 9.77699 18.6345 9.79613 18.8217 9.80175C20.6888 9.85579 22.3647 8.52627 22.8276 6.52467C23.5134 3.55154 21.4998 0.88237 18.9357 0.88237C18.6569 0.88237 18.3903 0.915017 18.1308 0.973556C18.0952 0.982563 18.0576 1.00057 18.0372 1.03547C18.0128 1.07825 18.0311 1.13567 18.0555 1.17282C18.8258 2.36725 19.2694 3.82398 19.2694 5.38653ZM22.3617 11.8907C23.6162 12.162 24.4414 12.7159 24.7833 13.5208C25.0723 14.1816 25.0723 14.9483 24.7833 15.608C24.2603 16.8564 22.5743 17.2572 21.919 17.3608C21.7837 17.3833 21.6748 17.2538 21.6891 17.1041C22.0238 13.6446 19.361 12.0044 18.6722 11.6273C18.6427 11.6104 18.6366 11.5845 18.6396 11.5687C18.6417 11.5575 18.6539 11.5395 18.6763 11.5361C20.1669 11.5057 21.7695 11.7309 22.3617 11.8907ZM6.17858 9.80164C6.3658 9.79601 6.54895 9.778 6.72803 9.7431C6.85725 9.71833 6.92238 9.55735 6.84911 9.43802C6.13686 8.27849 5.73088 6.88367 5.73088 5.38641C5.73088 3.82386 6.17451 2.36713 6.94476 1.1727C6.96918 1.13555 6.98648 1.07813 6.96308 1.03536C6.94273 1.00158 6.90406 0.982445 6.86946 0.973439C6.60898 0.9149 6.3424 0.882253 6.0636 0.882253C3.49949 0.882253 1.48586 3.55143 2.17267 6.52455C2.63563 8.52615 4.31146 9.85567 6.17858 9.80164ZM6.36016 11.5681C6.36321 11.585 6.3571 11.6097 6.32861 11.6277C5.63875 12.0049 2.97594 13.6451 3.3107 17.1034C3.32495 17.2543 3.21709 17.3826 3.08176 17.3612C2.42649 17.2577 0.740488 16.8569 0.217491 15.6084C-0.0724971 14.9476 -0.0724971 14.1821 0.217491 13.5213C0.559372 12.7163 1.38355 12.1625 2.63813 11.89C3.23134 11.7313 4.83289 11.5062 6.32454 11.5366C6.34693 11.5399 6.35812 11.5579 6.36016 11.5681Z" fill="white"/>
</symbol>
<symbol id="icon-paper" viewBox="0 0 25 28">
<path fill-rule="evenodd" clip-rule="evenodd" d="M7.86456 20.146H15.6717C16.2601 20.146 16.7481 19.67 16.7481 19.096C16.7481 18.522 16.2601 18.06 15.6717 18.06H7.86456C7.27616 18.06 6.78821 18.522 6.78821 19.096C6.78821 19.67 7.27616 20.146 7.86456 20.146ZM12.7153 11.06H7.86456C7.27616 11.06 6.78821 11.536 6.78821 12.11C6.78821 12.684 7.27616 13.146 7.86456 13.146H12.7153C13.3037 13.146 13.7917 12.684 13.7917 12.11C13.7917 11.536 13.3037 11.06 12.7153 11.06ZM22.9572 9.83586C23.2945 9.83209 23.6618 9.828 23.9956 9.828C24.3543 9.828 24.6414 10.108 24.6414 10.458V21.714C24.6414 25.186 21.7567 28 18.1976 28H6.77387C3.0425 28 0 25.046 0 21.406V6.314C0 2.842 2.89898 0 6.47249 0H14.1361C14.5093 0 14.7963 0.294 14.7963 0.644V5.152C14.7963 7.714 16.9634 9.814 19.5897 9.828C20.2031 9.828 20.7439 9.83243 21.2172 9.8363C21.5854 9.83932 21.9128 9.842 22.2016 9.842C22.4059 9.842 22.6707 9.83905 22.9572 9.83586ZM24.287 8.1041C23.0602 8.10847 21.6139 8.1041 20.5736 8.0939C18.9228 8.0939 17.5631 6.76749 17.5631 5.15715V1.31914C17.5631 0.691601 18.3437 0.380017 18.79 0.832833C19.5978 1.65223 20.708 2.77859 21.813 3.89977C22.915 5.01789 24.012 6.13086 24.799 6.9291C25.2348 7.37027 24.9154 8.10264 24.287 8.1041Z" fill="white"/>
</symbol>
<symbol id="icon-setting" viewBox="0 0 26 27">
<path fill-rule="evenodd" clip-rule="evenodd" d="M23.8698 15.44C24.3467 15.6933 24.7146 16.0933 24.9735 16.4933C25.4777 17.32 25.4368 18.3333 24.9463 19.2267L23.9924 20.8267C23.4883 21.68 22.5481 22.2133 21.5806 22.2133C21.1037 22.2133 20.5723 22.08 20.1362 21.8133C19.782 21.5867 19.3732 21.5067 18.9371 21.5067C17.5882 21.5067 16.4572 22.6133 16.4163 23.9333C16.4163 25.4667 15.1627 26.6667 13.5957 26.6667H11.7426C10.1619 26.6667 8.90834 25.4667 8.90834 23.9333C8.88109 22.6133 7.75012 21.5067 6.40114 21.5067C5.95147 21.5067 5.54269 21.5867 5.20204 21.8133C4.766 22.08 4.22096 22.2133 3.75767 22.2133C2.77659 22.2133 1.83639 21.68 1.33223 20.8267L0.392026 19.2267C-0.112139 18.36 -0.139391 17.32 0.364774 16.4933C0.582792 16.0933 0.991575 15.6933 1.45486 15.44C1.83639 15.2533 2.08166 14.9467 2.31331 14.5867C2.99461 13.44 2.58583 11.9333 1.42761 11.2533C0.0786262 10.4933 -0.357409 8.8 0.419279 7.48L1.33223 5.90667C2.12254 4.58667 3.81218 4.12 5.17479 4.89333C6.36026 5.53333 7.90001 5.10667 8.59494 3.97333C8.81296 3.6 8.93559 3.2 8.90834 2.8C8.88109 2.28 9.03097 1.78667 9.28987 1.38667C9.79403 0.56 10.707 0.0266667 11.7017 0H13.623C14.6313 0 15.5442 0.56 16.0484 1.38667C16.2937 1.78667 16.4572 2.28 16.4163 2.8C16.3891 3.2 16.5117 3.6 16.7297 3.97333C17.4247 5.10667 18.9644 5.53333 20.1635 4.89333C21.5125 4.12 23.2157 4.58667 23.9924 5.90667L24.9054 7.48C25.6957 8.8 25.2597 10.4933 23.897 11.2533C22.7388 11.9333 22.33 13.44 23.025 14.5867C23.243 14.9467 23.4883 15.2533 23.8698 15.44ZM8.81296 13.3467C8.81296 15.44 10.5435 17.1067 12.6828 17.1067C14.8221 17.1067 16.5117 15.44 16.5117 13.3467C16.5117 11.2533 14.8221 9.57333 12.6828 9.57333C10.5435 9.57333 8.81296 11.2533 8.81296 13.3467Z" fill="white"/>
</symbol>
</defs>
</svg>
