<svg aria-hidden="true" style="position: absolute; width: 0; height: 0; overflow: hidden;" version="1.1" xmlns="http://www.w3.org/2000/svg" xmlns:xlink="http://www.w3.org/1999/xlink">
<defs>
<symbol id="icon-picture_1" viewBox="0 0 16 20">
<path d="M6.5 11H4V8H6.5V5.5H9.5V8H12V11H9.5V13.5H6.5V11ZM8 0L0 3V9.09C0 14.14 3.41 18.85 8 20C12.59 18.85 16 14.14 16 9.09V3L8 0Z" fill="#0071FB"/>
</symbol>

<symbol id="icon-picture_2" viewBox="0 0 24 24" fill="none">
<path d="M7 12L11 15L16 8M12 22C17.523 22 22 17.523 22 12C22 6.477 17.523 2 12 2C6.477 2 2 6.477 2 12C2 17.523 6.477 22 12 22Z" stroke="#0071FB" stroke-width="2.5"/>
</symbol>

<symbol id="icon-picture_3" viewBox="0 0 24 24">
<path d="M12 24C10.375 24 8.82031 23.6836 7.33594 23.0508C5.85156 22.418 4.57422 21.5664 3.50391 20.4961C2.43359 19.4258 1.58203 18.1484 0.949219 16.6641C0.316406 15.1797 0 13.625 0 12C0 10.375 0.316406 8.82031 0.949219 7.33594C1.58203 5.85156 2.43359 4.57422 3.50391 3.50391C4.57422 2.43359 5.85156 1.58203 7.33594 0.949219C8.82031 0.316406 10.375 0 12 0C13.625 0 15.1797 0.316406 16.6641 0.949219C18.1484 1.58203 19.4258 2.43359 20.4961 3.50391C21.5664 4.57422 22.418 5.85156 23.0508 7.33594C23.6836 8.82031 24 10.375 24 12C24 13.625 23.6836 15.1797 23.0508 16.6641C22.418 18.1484 21.5664 19.4258 20.4961 20.4961C19.4258 21.5664 18.1484 22.418 16.6641 23.0508C15.1797 23.6836 13.625 24 12 24ZM12 3C10.375 3 8.87109 3.40234 7.48828 4.20703C6.10547 5.01172 5.01172 6.10547 4.20703 7.48828C3.40234 8.87109 3 10.375 3 12C3 13.625 3.40234 15.1289 4.20703 16.5117C5.01172 17.8945 6.10547 18.9883 7.48828 19.793C8.87109 20.5977 10.375 21 12 21C13.625 21 15.1289 20.5977 16.5117 19.793C17.8945 18.9883 18.9883 17.8945 19.793 16.5117C20.5977 15.1289 21 13.625 21 12C21 10.375 20.5977 8.87109 19.793 7.48828C18.9883 6.10547 17.8945 5.01172 16.5117 4.20703C15.1289 3.40234 13.625 3 12 3ZM12.75 19.5H11.25C11.0469 19.5 10.8711 19.4258 10.7227 19.2773C10.5742 19.1289 10.5 18.9531 10.5 18.75V17.25C10.5 17.0469 10.5742 16.8711 10.7227 16.7227C10.8711 16.5742 11.0469 16.5 11.25 16.5H12.75C12.9531 16.5 13.1289 16.5742 13.2773 16.7227C13.4258 16.8711 13.5 17.0469 13.5 17.25V18.75C13.5 18.9531 13.4258 19.1289 13.2773 19.2773C13.1289 19.4258 12.9531 19.5 12.75 19.5ZM12.75 15H11.25C11.0469 15 10.8711 14.9258 10.7227 14.7773C10.5742 14.6289 10.5 14.4531 10.5 14.25V5.25C10.5 5.04688 10.5742 4.87109 10.7227 4.72266C10.8711 4.57422 11.0469 4.5 11.25 4.5H12.75C12.9531 4.5 13.1289 4.57422 13.2773 4.72266C13.4258 4.87109 13.5 5.04688 13.5 5.25V14.25C13.5 14.4531 13.4258 14.6289 13.2773 14.7773C13.1289 14.9258 12.9531 15 12.75 15Z" fill="#0071FB"/>
</symbol>

<symbol id="icon-picture_4" viewBox="0 0 24 20">
<path d="M23.2935 2.06657C21.8389 1.44918 20.3831 1.21429 18.9281 1.21429C14.3092 1.21392 9.69075 3.57987 5.07187 3.57987C3.9135 3.57987 2.75587 3.43113 1.5975 3.05925C1.46737 3.01751 1.33687 2.99778 1.20937 2.99778C0.564 2.99778 0 3.50322 0 4.20485V16.2437C0 16.723 0.271125 17.1772 0.7065 17.3616C2.16112 17.9794 3.61687 18.2143 5.07187 18.2143C9.69075 18.2143 14.3096 15.8483 18.9285 15.8483C20.0869 15.8483 21.2445 15.9971 22.4029 16.369C22.533 16.4107 22.6635 16.4304 22.791 16.4304C23.4364 16.4304 24.0004 15.925 24.0004 15.2234V3.18485C24 2.70521 23.7289 2.25137 23.2935 2.06657ZM1.8 5.01729C2.5545 5.20854 3.342 5.30454 4.152 5.35615C3.9315 6.47139 2.9625 7.31191 1.8 7.31191V5.01729ZM1.8 15.832V14.0189C3.08887 14.0189 4.13175 15.0537 4.18912 16.3488C3.34425 16.2802 2.5545 16.1094 1.8 15.832ZM12 13.3572C10.3429 13.3572 9 11.7258 9 9.7143C9 7.70238 10.3432 6.07144 12 6.07144C13.6567 6.07144 15 7.70238 15 9.7143C15 11.7266 13.6564 13.3572 12 13.3572ZM22.2 14.4113C21.543 14.2447 20.8609 14.1514 20.163 14.091C20.3831 13.1014 21.1942 12.3501 22.2 12.221V14.4113ZM22.2 5.45177C21.0416 5.3034 20.1427 4.32476 20.1071 3.11617C20.8399 3.19851 21.5355 3.35258 22.2 3.59657V5.45177Z" fill="#0071FB"/>
</symbol>


</defs>
</svg>
